<svg xmlns="http://www.w3.org/2000/svg" xmlns:xlink="http://www.w3.org/1999/xlink" width="500" zoomAndPan="magnify" viewBox="0 0 375 149.999998" height="200" preserveAspectRatio="xMidYMid meet" version="1.0"><defs><clipPath id="c24c016c79"><path d="M 112 149 L 121 149 L 121 149.25 L 112 149.25 Z M 112 149 " clip-rule="nonzero"/></clipPath><clipPath id="e829cf7a0f"><path d="M 155 149 L 157 149 L 157 149.25 L 155 149.25 Z M 155 149 " clip-rule="nonzero"/></clipPath><clipPath id="a4af283a82"><path d="M 232 149 L 238 149 L 238 149.25 L 232 149.25 Z M 232 149 " clip-rule="nonzero"/></clipPath><clipPath id="95f9d2e1cc"><path d="M 250 149 L 256 149 L 256 149.25 L 250 149.25 Z M 250 149 " clip-rule="nonzero"/></clipPath><clipPath id="93502ed4ab"><path d="M 258 149 L 267 149 L 267 149.25 L 258 149.25 Z M 258 149 " clip-rule="nonzero"/></clipPath><clipPath id="0468127f27"><path d="M 269 149 L 277 149 L 277 149.25 L 269 149.25 Z M 269 149 " clip-rule="nonzero"/></clipPath><clipPath id="a7a1ceebe2"><path d="M 99 149 L 111 149 L 111 149.25 L 99 149.25 Z M 99 149 " clip-rule="nonzero"/></clipPath><clipPath id="d7b9afee33"><path d="M 123 149 L 133 149 L 133 149.25 L 123 149.25 Z M 123 149 " clip-rule="nonzero"/></clipPath><clipPath id="1d73793b82"><path d="M 145 149 L 153 149 L 153 149.25 L 145 149.25 Z M 145 149 " clip-rule="nonzero"/></clipPath><clipPath id="622c2148b8"><path d="M 159 149 L 166 149 L 166 149.25 L 159 149.25 Z M 159 149 " clip-rule="nonzero"/></clipPath><clipPath id="c7fe21cbd2"><path d="M 190 149 L 198 149 L 198 149.25 L 190 149.25 Z M 190 149 " clip-rule="nonzero"/></clipPath><clipPath id="5816c5c393"><path d="M 240 149 L 248 149 L 248 149.25 L 240 149.25 Z M 240 149 " clip-rule="nonzero"/></clipPath></defs><path fill="#ffffff" d="M 85.042969 19.851562 C 73.460938 20.90625 66.324219 25.058594 62.8125 32.78125 C 61.175781 36.410156 61.351562 41.617188 63.164062 43.722656 C 63.28125 43.839844 63.867188 43.546875 64.511719 42.960938 C 65.445312 42.140625 65.503906 41.617188 65.039062 39.390625 C 64.160156 35.179688 65.328125 30.734375 68.253906 27.574219 C 71.121094 24.472656 73.8125 23.011719 78.785156 21.84375 C 93.058594 18.566406 109.847656 20.90625 147.054688 31.496094 C 176.773438 39.976562 207.3125 46.589844 237.382812 51.035156 C 242.765625 51.851562 247.386719 52.613281 247.5625 52.789062 C 247.738281 52.964844 245.691406 58.054688 243 64.078125 C 240.367188 70.164062 234.632812 83.210938 230.304688 93.214844 C 222.992188 110.121094 221.351562 113.511719 221.351562 111.816406 C 221.351562 111.113281 204.5625 71.566406 202.984375 68.410156 C 202.046875 66.652344 201.871094 66.59375 198.246094 66.59375 C 196.140625 66.59375 194.441406 66.652344 194.441406 66.710938 C 194.441406 67.589844 218.3125 121.234375 218.71875 121.410156 C 219.070312 121.46875 221.761719 115.738281 224.804688 108.539062 C 229.777344 96.957031 248.847656 53.023438 249.082031 52.730469 C 249.140625 52.671875 253.527344 53.140625 258.792969 53.726562 C 264.117188 54.367188 274.472656 55.246094 281.902344 55.773438 C 289.273438 56.300781 295.472656 56.824219 295.589844 56.941406 C 295.707031 57.058594 295.238281 58.054688 294.539062 59.222656 C 293.015625 61.621094 289.390625 65.015625 286.933594 66.304688 C 284.359375 67.589844 284.710938 68.234375 287.925781 68.175781 L 290.675781 68.058594 L 290.96875 92.453125 C 291.261719 115.796875 291.320312 116.90625 292.433594 118.425781 C 294.65625 121.351562 297.171875 122.289062 302.4375 122.054688 C 308.109375 121.761719 311.210938 120.242188 315.015625 115.796875 L 317.527344 112.929688 L 320.453125 115.503906 C 335.429688 128.664062 359.007812 121.878906 364.332031 102.867188 C 366.496094 94.910156 366.085938 89.117188 362.632812 81.980469 C 358.1875 72.503906 348.945312 66.59375 338.707031 66.59375 C 323.613281 66.59375 311.386719 79.171875 311.445312 94.675781 C 311.503906 99.765625 312.265625 102.925781 314.78125 107.957031 L 316.886719 112.226562 L 314.605469 114.976562 C 309.867188 120.652344 303.253906 122.40625 299.804688 119.011719 L 298.28125 117.492188 L 297.929688 67.765625 L 304.71875 67.765625 C 308.8125 67.765625 311.445312 67.53125 311.445312 67.179688 C 311.445312 66.828125 308.8125 66.59375 304.71875 66.59375 L 297.988281 66.59375 L 297.988281 56.824219 L 314.839844 56.476562 C 332.679688 56.183594 338.941406 55.480469 346.722656 52.847656 C 353.800781 50.449219 359.417969 45.886719 361.816406 40.621094 C 363.21875 37.578125 363.277344 31.554688 361.992188 28.980469 C 360.292969 25.644531 360 25.46875 358.480469 26.871094 L 357.191406 28.101562 L 358.597656 30.734375 C 361.464844 36.234375 360.058594 42.726562 354.96875 47.230469 C 349.355469 52.203125 339.292969 54.601562 320.628906 55.539062 C 306.648438 56.242188 297.988281 55.832031 297.988281 54.542969 C 297.988281 54.074219 297.753906 53.726562 297.40625 53.726562 C 297.113281 53.726562 296.820312 54.132812 296.820312 54.660156 C 296.820312 55.539062 296.058594 55.597656 289.097656 55.246094 C 280.4375 54.777344 265.171875 53.492188 256.042969 52.496094 C 251.304688 51.96875 250.019531 51.617188 250.019531 50.917969 C 250.019531 49.101562 259.90625 29.855469 262.832031 26.054688 C 264.46875 23.832031 265.8125 21.957031 265.8125 21.785156 C 265.8125 21.609375 264.175781 21.550781 262.246094 21.667969 L 258.617188 21.84375 L 257.566406 26.8125 C 256.394531 32.546875 255.75 34.417969 251.65625 44.1875 C 249.902344 48.519531 248.378906 51.386719 247.855469 51.386719 C 246.390625 51.386719 227.027344 48.402344 219.011719 46.9375 C 206.085938 44.597656 195.085938 41.847656 175.957031 36.234375 C 131.378906 23.246094 103.296875 18.15625 85.042969 19.851562 Z M 344.03125 69.167969 C 349.472656 71.742188 355.261719 78.878906 357.660156 86.25 C 362.339844 100.234375 358.539062 113.921875 348.652344 119.128906 C 346.078125 120.476562 344.90625 120.710938 340.695312 120.710938 C 336.132812 120.710938 335.429688 120.535156 332.039062 118.71875 C 323.261719 113.980469 317.878906 103.453125 317.878906 91.164062 C 317.9375 83.269531 319.460938 78.414062 323.554688 73.617188 C 328.351562 68.058594 337.359375 66.070312 344.03125 69.167969 Z M 344.03125 69.167969 " fill-opacity="1" fill-rule="nonzero"/><path fill="#ffffff" d="M 28.238281 68 C 23.558594 69.871094 21.21875 71.449219 18.175781 74.726562 C 3.203125 90.699219 12.445312 119.246094 33.5625 122.113281 C 40.992188 123.109375 49.359375 120.828125 56.261719 115.96875 L 58.953125 114.039062 L 60.882812 116.320312 C 63.164062 118.953125 68.898438 121.9375 72.816406 122.464844 C 78.316406 123.285156 85.453125 121 89.375 117.140625 C 92.53125 114.039062 93.878906 110.996094 93.9375 106.726562 C 93.996094 98.1875 89.140625 93.273438 77.730469 90.230469 C 69.953125 88.183594 66.675781 86.367188 64.6875 83.035156 C 62.753906 79.699219 62.582031 75.371094 64.335938 72.445312 C 67.609375 66.769531 78.785156 65.953125 83.40625 71.101562 C 84.8125 72.679688 86.214844 76.191406 86.214844 78.296875 C 86.214844 79.992188 86.273438 80.050781 89.199219 80.050781 C 92.472656 80.050781 92.53125 79.933594 90.425781 75.371094 C 87.328125 68.761719 77.789062 64.957031 69.71875 67.179688 C 57.550781 70.574219 54.566406 86.191406 64.6875 93.507812 C 66.148438 94.558594 70.125 96.253906 74.398438 97.601562 C 82.820312 100.234375 85.6875 101.988281 87.382812 105.441406 C 90.367188 111.699219 87.558594 118.484375 81.007812 120.710938 C 71.707031 123.867188 62.289062 118.195312 62.230469 109.359375 L 62.230469 106.785156 L 59.773438 107.195312 C 58.425781 107.429688 57.199219 107.722656 57.023438 107.898438 C 56.847656 108.074219 57.140625 109.300781 57.664062 110.765625 L 58.660156 113.339844 L 55.035156 115.679688 C 49.945312 118.953125 46.902344 119.949219 41.753906 120.007812 C 35.84375 120.007812 31.691406 118.367188 27.1875 114.214844 C 23.96875 111.289062 20.109375 106.140625 20.109375 104.855469 C 20.109375 104.5625 22.449219 103.394531 25.257812 102.164062 C 37.542969 97.015625 46.492188 92.6875 48.714844 90.757812 C 57.839844 82.976562 55.441406 71.917969 43.625 67.648438 C 39.472656 66.128906 32.335938 66.304688 28.238281 68 Z M 38.886719 67.824219 C 44.5625 69.050781 48.714844 74.609375 48.070312 80.285156 C 47.488281 85.433594 42.515625 92.570312 37.367188 95.613281 C 33.621094 97.777344 20.109375 103.511719 19.523438 103.160156 C 18.644531 102.632812 17.59375 96.371094 17.59375 91.75 C 17.59375 83.96875 19.933594 77.476562 24.378906 72.621094 C 27.539062 69.167969 29.644531 68.175781 35.433594 67.238281 C 35.667969 67.179688 37.191406 67.472656 38.886719 67.824219 Z M 38.886719 67.824219 " fill-opacity="1" fill-rule="nonzero"/><path fill="#ffffff" d="M 114.296875 67.941406 C 98.851562 73.207031 91.890625 91.339844 99.320312 106.667969 C 104.292969 116.730469 112.949219 122.289062 123.949219 122.230469 C 131.671875 122.230469 138.222656 119.773438 145.007812 114.214844 L 148.167969 111.640625 L 150.917969 114.566406 C 157.644531 121.761719 169.8125 124.335938 179.347656 120.59375 C 190.816406 116.144531 197.191406 105.96875 196.664062 92.921875 C 196.488281 87.773438 196.253906 86.777344 194.324219 82.917969 C 189.117188 72.445312 180.34375 66.652344 169.695312 66.59375 C 155.773438 66.59375 144.714844 76.949219 142.667969 91.808594 C 142.140625 95.847656 143.371094 102.046875 145.59375 106.785156 L 147.582031 110.996094 L 144.832031 113.398438 C 141.207031 116.496094 135.941406 119.128906 131.4375 119.949219 C 127.046875 120.769531 122.542969 120.007812 117.921875 117.667969 C 114.296875 115.796875 108.855469 110.238281 106.574219 106.023438 C 101.074219 95.90625 102.359375 80.8125 109.382812 73.089844 C 115.171875 66.652344 124.648438 65.542969 130.265625 70.632812 C 132.839844 72.972656 134.1875 75.546875 134.1875 78.296875 C 134.1875 80.050781 134.1875 80.050781 137.402344 80.050781 C 139.160156 80.050781 140.621094 79.933594 140.621094 79.757812 C 140.621094 79.582031 139.976562 78.179688 139.21875 76.65625 C 134.886719 68.117188 124.476562 64.488281 114.296875 67.941406 Z M 175.605469 69.578125 C 186.542969 75.019531 193.507812 92.277344 190.054688 105.382812 C 187.539062 114.976562 181.746094 120.242188 172.914062 120.828125 C 167.0625 121.234375 163.085938 119.597656 158.113281 114.625 C 152.085938 108.597656 149.277344 101.34375 149.222656 91.75 C 149.164062 83.386719 151.035156 77.710938 155.480469 73.148438 C 159.339844 69.050781 162.148438 67.882812 168.175781 67.824219 C 171.394531 67.765625 172.621094 68.058594 175.605469 69.578125 Z M 175.605469 69.578125 " fill-opacity="1" fill-rule="nonzero"/><path fill="#ffffff" d="M 257.214844 67.707031 C 251.65625 69.636719 247.035156 73.734375 244.988281 78.589844 L 244.109375 80.695312 L 249.726562 80.34375 L 250.136719 77.828125 C 250.71875 74.316406 252.242188 71.917969 255.226562 69.8125 C 257.332031 68.351562 258.382812 68.058594 262.011719 67.882812 C 265.8125 67.648438 266.691406 67.824219 268.855469 69.109375 C 272.191406 71.042969 274.121094 74.492188 274.238281 78.589844 C 274.296875 81.164062 274.0625 81.980469 272.894531 83.210938 C 270.84375 85.433594 266.574219 87.65625 257.917969 91.109375 C 248.261719 94.96875 245.804688 96.429688 243.640625 99.53125 C 238.375 107.195312 240.660156 116.4375 248.847656 120.769531 C 250.488281 121.644531 252.183594 121.878906 257.039062 121.878906 C 262.65625 121.878906 263.472656 121.703125 266.28125 120.242188 C 267.980469 119.363281 270.4375 117.550781 271.664062 116.203125 L 274.003906 113.863281 L 274.003906 121.585938 L 281.316406 121.585938 L 281.199219 99.53125 C 281.082031 86.777344 280.789062 76.539062 280.4375 75.3125 C 279.621094 72.328125 275.464844 68.644531 271.605469 67.53125 C 267.511719 66.304688 261.015625 66.363281 257.214844 67.707031 Z M 274.003906 98.246094 L 274.003906 112.34375 L 270.609375 115.738281 C 267.863281 118.484375 266.515625 119.363281 263.765625 120.125 C 257.273438 122.054688 251.832031 119.832031 249.082031 114.273438 C 247.738281 111.40625 247.5625 110.53125 247.796875 106.960938 C 248.320312 99.472656 251.832031 95.554688 262.773438 90.289062 C 266.457031 88.476562 270.4375 86.367188 271.605469 85.550781 C 272.777344 84.789062 273.769531 84.144531 273.828125 84.144531 C 273.945312 84.144531 274.003906 90.464844 274.003906 98.246094 Z M 274.003906 98.246094 " fill-opacity="1" fill-rule="nonzero"/><g clip-path="url(#c24c016c79)"><path fill="#ffffff" d="M 114.121094 150.253906 C 111.253906 152.535156 112.65625 156.6875 116.402344 156.6875 C 120.027344 156.6875 121.84375 153.46875 119.734375 150.953125 C 118.15625 149.082031 115.992188 148.789062 114.121094 150.253906 Z M 117.863281 150.835938 C 120.085938 152.066406 118.917969 155.515625 116.226562 155.515625 C 113.125 155.515625 113.359375 151.070312 116.519531 150.3125 C 116.636719 150.253906 117.21875 150.542969 117.863281 150.835938 Z M 117.863281 150.835938 " fill-opacity="1" fill-rule="nonzero"/></g><g clip-path="url(#e829cf7a0f)"><path fill="#ffffff" d="M 155.480469 149.960938 C 155.070312 150.953125 155.714844 152.125 156.476562 151.714844 C 157.175781 151.246094 157.175781 149.082031 156.417969 149.082031 C 156.066406 149.082031 155.65625 149.492188 155.480469 149.960938 Z M 155.480469 149.960938 " fill-opacity="1" fill-rule="nonzero"/></g><g clip-path="url(#a4af283a82)"><path fill="#ffffff" d="M 233.519531 149.726562 C 231.589844 150.835938 232.644531 153.761719 234.925781 153.761719 C 237.03125 153.761719 236.035156 155.460938 233.8125 155.632812 C 231.648438 155.867188 231.648438 155.867188 233.054688 156.453125 C 234.984375 157.332031 237.382812 156.628906 237.617188 155.109375 C 237.792969 153.820312 236.855469 152.828125 235.160156 152.535156 C 232.9375 152.125 233.402344 150.835938 235.804688 150.835938 C 237.910156 150.777344 237.96875 150.71875 236.914062 149.960938 C 235.570312 148.964844 234.925781 148.90625 233.519531 149.726562 Z M 233.519531 149.726562 " fill-opacity="1" fill-rule="nonzero"/></g><g clip-path="url(#95f9d2e1cc)"><path fill="#ffffff" d="M 250.953125 149.492188 C 250.777344 149.667969 250.605469 151.421875 250.605469 153.292969 L 250.605469 156.6875 L 253.292969 156.6875 C 254.875 156.6875 255.808594 156.453125 255.578125 156.101562 C 255.402344 155.75 254.582031 155.515625 253.761719 155.515625 C 252.476562 155.515625 252.359375 155.285156 252.359375 152.652344 C 252.359375 149.902344 251.832031 148.671875 250.953125 149.492188 Z M 250.953125 149.492188 " fill-opacity="1" fill-rule="nonzero"/></g><g clip-path="url(#93502ed4ab)"><path fill="#ffffff" d="M 260.550781 149.492188 C 258.148438 150.371094 257.390625 154.054688 259.261719 155.691406 C 260.375 156.6875 263.238281 156.980469 264.410156 156.21875 C 265.753906 155.34375 266.398438 153.292969 265.8125 151.773438 C 264.996094 149.609375 262.890625 148.671875 260.550781 149.492188 Z M 263.707031 151.1875 C 264.820312 152.242188 264.9375 153.820312 263.941406 154.816406 C 261.660156 157.097656 258.09375 153.820312 260.257812 151.421875 C 261.542969 150.019531 262.480469 149.960938 263.707031 151.1875 Z M 263.707031 151.1875 " fill-opacity="1" fill-rule="nonzero"/></g><g clip-path="url(#0468127f27)"><path fill="#ffffff" d="M 269.675781 149.492188 C 269.089844 150.136719 269.265625 156.6875 269.910156 156.6875 C 270.261719 156.6875 270.492188 155.632812 270.492188 154.347656 C 270.492188 153.058594 270.667969 152.007812 270.960938 152.007812 C 271.195312 152.007812 272.015625 153.058594 272.835938 154.347656 C 273.652344 155.691406 274.707031 156.6875 275.351562 156.6875 C 276.285156 156.6875 276.402344 156.21875 276.226562 153 C 276.050781 148.847656 275 148.144531 274.589844 151.890625 L 274.296875 154.40625 L 272.835938 152.066406 C 271.429688 149.726562 270.320312 148.847656 269.675781 149.492188 Z M 269.675781 149.492188 " fill-opacity="1" fill-rule="nonzero"/></g><g clip-path="url(#a7a1ceebe2)"><path fill="#ffffff" d="M 100.195312 153.175781 C 100.898438 155.808594 101.367188 156.6875 102.128906 156.6875 C 102.710938 156.6875 103.179688 156.335938 103.179688 155.925781 C 103.238281 155.574219 103.589844 154.40625 104 153.46875 L 104.757812 151.714844 L 105.460938 154.171875 C 106.398438 157.683594 108.09375 157.625 108.972656 154.113281 C 109.324219 152.710938 109.730469 151.128906 109.964844 150.601562 C 110.199219 150.019531 110.023438 149.667969 109.441406 149.667969 C 108.855469 149.667969 108.386719 150.429688 108.09375 151.714844 C 107.566406 154.582031 106.984375 154.699219 106.164062 152.007812 C 105.285156 149.023438 104 149.023438 103.179688 152.007812 C 102.828125 153.292969 102.417969 154.347656 102.300781 154.347656 C 102.1875 154.347656 101.777344 153.292969 101.425781 152.007812 C 101.074219 150.71875 100.429688 149.667969 100.019531 149.667969 C 99.4375 149.667969 99.4375 150.371094 100.195312 153.175781 Z M 100.195312 153.175781 " fill-opacity="1" fill-rule="nonzero"/></g><g clip-path="url(#d7b9afee33)"><path fill="#ffffff" d="M 124.007812 150.601562 C 123.832031 151.128906 123.65625 152.710938 123.65625 154.113281 C 123.65625 155.984375 123.890625 156.6875 124.53125 156.6875 C 125.175781 156.6875 125.410156 155.984375 125.46875 154.171875 L 125.527344 151.714844 L 126.640625 154.171875 C 127.28125 155.574219 128.042969 156.6875 128.335938 156.6875 C 128.628906 156.6875 129.390625 155.574219 130.03125 154.171875 L 131.144531 151.714844 L 131.203125 154.171875 C 131.261719 158.089844 132.429688 157.15625 132.429688 153.175781 C 132.429688 150.136719 132.253906 149.667969 131.378906 149.667969 C 130.617188 149.667969 129.914062 150.488281 129.273438 152.125 L 128.21875 154.640625 L 127.105469 152.125 C 125.9375 149.609375 124.648438 148.964844 124.007812 150.601562 Z M 124.007812 150.601562 " fill-opacity="1" fill-rule="nonzero"/></g><g clip-path="url(#1d73793b82)"><path fill="#ffffff" d="M 145.300781 153.175781 C 145.300781 157.332031 146.355469 157.917969 146.589844 153.878906 L 146.761719 151.128906 L 148.402344 153.9375 C 150.683594 157.800781 151.96875 157.507812 152.203125 153 C 152.378906 150.253906 152.261719 149.667969 151.503906 149.667969 C 150.800781 149.667969 150.566406 150.253906 150.566406 152.125 L 150.566406 154.582031 L 148.753906 152.125 C 146.179688 148.613281 145.300781 148.847656 145.300781 153.175781 Z M 145.300781 153.175781 " fill-opacity="1" fill-rule="nonzero"/></g><g clip-path="url(#622c2148b8)"><path fill="#ffffff" d="M 160.511719 150.542969 C 159.515625 151.714844 160.160156 153.058594 162.03125 153.761719 C 163.964844 154.523438 163.554688 155.867188 161.507812 155.632812 C 160.628906 155.515625 159.925781 155.691406 159.925781 156.101562 C 159.925781 156.511719 160.863281 156.6875 162.441406 156.570312 C 164.605469 156.394531 164.898438 156.21875 164.898438 154.933594 C 164.898438 153.996094 164.429688 153.234375 163.4375 152.769531 C 161.449219 151.773438 161.566406 150.488281 163.613281 150.71875 C 164.488281 150.777344 165.191406 150.601562 165.191406 150.253906 C 165.191406 149.316406 161.332031 149.550781 160.511719 150.542969 Z M 160.511719 150.542969 " fill-opacity="1" fill-rule="nonzero"/></g><g clip-path="url(#c7fe21cbd2)"><path fill="#ffffff" d="M 192.335938 151.832031 C 190.40625 156.453125 190.347656 156.6875 191.167969 156.6875 C 191.632812 156.6875 192.101562 156.277344 192.335938 155.808594 C 192.511719 155.34375 193.332031 154.933594 194.148438 154.933594 C 194.96875 154.933594 195.789062 155.34375 195.964844 155.808594 C 196.199219 156.277344 196.664062 156.6875 197.132812 156.6875 C 197.71875 156.6875 197.601562 155.867188 196.664062 153.175781 C 195.144531 148.964844 193.796875 148.554688 192.335938 151.832031 Z M 195.027344 153.292969 C 195.027344 153.878906 194.617188 154.347656 194.148438 154.347656 C 193.214844 154.347656 193.039062 153.351562 193.625 151.714844 C 193.914062 150.953125 194.089844 150.894531 194.5 151.539062 C 194.792969 151.949219 195.027344 152.769531 195.027344 153.292969 Z M 195.027344 153.292969 " fill-opacity="1" fill-rule="nonzero"/></g><g clip-path="url(#5816c5c393)"><path fill="#ffffff" d="M 241.828125 152.886719 C 240.484375 156.160156 240.660156 157.917969 242.0625 155.925781 C 243 154.699219 245.691406 154.582031 246.15625 155.808594 C 246.507812 156.804688 247.679688 156.980469 247.679688 156.042969 C 247.679688 155.691406 247.09375 154.113281 246.449219 152.535156 C 244.753906 148.613281 243.523438 148.730469 241.828125 152.886719 Z M 245.339844 153.585938 C 245.339844 153.996094 244.8125 154.347656 244.167969 154.347656 C 242.882812 154.347656 242.824219 154.171875 243.40625 152.066406 C 243.757812 150.71875 243.816406 150.71875 244.578125 151.714844 C 244.988281 152.359375 245.339844 153.175781 245.339844 153.585938 Z M 245.339844 153.585938 " fill-opacity="1" fill-rule="nonzero"/></g></svg>