<svg xmlns="http://www.w3.org/2000/svg" xmlns:xlink="http://www.w3.org/1999/xlink" width="500" zoomAndPan="magnify" viewBox="0 0 375 149.999998" height="200" preserveAspectRatio="xMidYMid meet" version="1.0"><path fill="#903a19" d="M 78.210938 122.523438 C 77.308594 121.554688 76.207031 120.648438 74.910156 119.816406 C 73.613281 118.980469 72.128906 118.171875 70.464844 117.382812 L 65.25 114.882812 C 64.09375 114.324219 63.027344 113.78125 62.054688 113.25 C 61.082031 112.714844 60.238281 112.113281 59.519531 111.441406 C 58.800781 110.769531 58.234375 109.992188 57.816406 109.113281 C 57.398438 108.234375 57.191406 107.191406 57.191406 105.988281 C 57.191406 104.597656 57.46875 103.40625 58.023438 102.40625 C 58.582031 101.414062 59.308594 100.601562 60.214844 99.976562 C 61.117188 99.351562 62.148438 98.898438 63.308594 98.621094 C 64.464844 98.34375 65.621094 98.203125 66.78125 98.203125 C 69.003906 98.203125 71.066406 98.703125 72.964844 99.699219 C 74.863281 100.695312 76.484375 102.1875 77.828125 104.179688 L 80.46875 102.164062 C 79.03125 99.988281 77.144531 98.226562 74.804688 96.882812 C 72.46875 95.539062 69.769531 94.867188 66.710938 94.867188 C 64.902344 94.867188 63.199219 95.125 61.605469 95.632812 C 60.003906 96.144531 58.605469 96.882812 57.398438 97.855469 C 56.195312 98.828125 55.234375 100.011719 54.515625 101.398438 C 53.796875 102.789062 53.4375 104.386719 53.4375 106.195312 C 53.4375 107.863281 53.726562 109.300781 54.308594 110.503906 C 54.886719 111.710938 55.640625 112.773438 56.566406 113.699219 C 57.492188 114.628906 58.566406 115.4375 59.796875 116.132812 C 61.023438 116.828125 62.261719 117.476562 63.515625 118.078125 L 68.792969 120.578125 C 70.140625 121.230469 71.332031 121.863281 72.375 122.492188 C 73.417969 123.117188 74.296875 123.777344 75.015625 124.472656 C 75.734375 125.164062 76.277344 125.964844 76.648438 126.867188 C 77.019531 127.769531 77.203125 128.824219 77.203125 130.03125 C 77.203125 131.417969 76.9375 132.648438 76.40625 133.714844 C 75.871094 134.78125 75.140625 135.683594 74.214844 136.421875 C 73.289062 137.164062 72.191406 137.734375 70.914062 138.125 C 69.640625 138.519531 68.261719 138.714844 66.78125 138.714844 C 63.628906 138.714844 60.917969 137.917969 58.648438 136.320312 C 56.378906 134.71875 54.503906 132.742188 53.023438 130.378906 L 50.3125 132.394531 C 52.070312 135.359375 54.351562 137.71875 57.15625 139.480469 C 59.957031 141.242188 63.167969 142.121094 66.78125 142.121094 C 68.773438 142.121094 70.636719 141.832031 72.375 141.253906 C 74.113281 140.675781 75.628906 139.851562 76.925781 138.785156 C 78.222656 137.71875 79.230469 136.445312 79.949219 134.964844 C 80.667969 133.480469 81.027344 131.8125 81.027344 129.960938 C 81.027344 128.386719 80.785156 126.996094 80.296875 125.789062 C 79.808594 124.585938 79.113281 123.5 78.210938 122.523438 " fill-opacity="1" fill-rule="nonzero"/><path fill="#903a19" d="M 98.851562 104.042969 C 100.632812 102.234375 102.726562 100.808594 105.140625 99.765625 C 107.546875 98.726562 110.164062 98.203125 112.992188 98.203125 C 116.328125 98.203125 119.335938 98.933594 122.023438 100.394531 C 124.710938 101.851562 126.957031 103.832031 128.765625 106.335938 L 131.476562 104.179688 C 129.4375 101.355469 126.820312 99.097656 123.625 97.40625 C 120.425781 95.714844 116.859375 94.867188 112.921875 94.867188 C 109.632812 94.867188 106.5625 95.472656 103.714844 96.675781 C 100.863281 97.878906 98.386719 99.535156 96.277344 101.644531 C 94.171875 103.753906 92.5 106.253906 91.273438 109.148438 C 90.046875 112.042969 89.433594 115.160156 89.433594 118.496094 C 89.433594 121.832031 90.035156 124.933594 91.238281 127.804688 C 92.445312 130.679688 94.113281 133.179688 96.242188 135.3125 C 98.375 137.441406 100.863281 139.109375 103.714844 140.3125 C 106.5625 141.519531 109.632812 142.121094 112.921875 142.121094 C 116.859375 142.121094 120.4375 141.277344 123.65625 139.585938 C 126.875 137.894531 129.484375 135.636719 131.476562 132.808594 L 128.765625 130.65625 C 126.957031 133.15625 124.710938 135.125 122.023438 136.5625 C 119.335938 138 116.328125 138.714844 112.992188 138.714844 C 110.164062 138.714844 107.546875 138.195312 105.140625 137.152344 C 102.726562 136.109375 100.632812 134.683594 98.851562 132.878906 C 97.066406 131.074219 95.675781 128.929688 94.679688 126.453125 C 93.683594 123.972656 93.1875 121.296875 93.1875 118.425781 C 93.1875 115.554688 93.683594 112.890625 94.679688 110.433594 C 95.675781 107.980469 97.066406 105.847656 98.851562 104.042969 " fill-opacity="1" fill-rule="nonzero"/><path fill="#903a19" d="M 180.292969 126.453125 C 179.296875 128.929688 177.917969 131.070312 176.15625 132.878906 C 174.398438 134.6875 172.3125 136.109375 169.902344 137.152344 C 167.496094 138.195312 164.902344 138.714844 162.121094 138.714844 C 159.292969 138.714844 156.675781 138.195312 154.269531 137.152344 C 151.859375 136.109375 149.773438 134.6875 148.011719 132.878906 C 146.253906 131.070312 144.875 128.929688 143.878906 126.453125 C 142.882812 123.972656 142.386719 121.296875 142.386719 118.425781 C 142.386719 115.554688 142.882812 112.890625 143.878906 110.433594 C 144.875 107.980469 146.253906 105.847656 148.011719 104.042969 C 149.773438 102.234375 151.859375 100.808594 154.269531 99.765625 C 156.675781 98.726562 159.292969 98.203125 162.121094 98.203125 C 164.902344 98.203125 167.496094 98.726562 169.902344 99.765625 C 172.3125 100.808594 174.398438 102.234375 176.15625 104.042969 C 177.917969 105.847656 179.296875 107.992188 180.292969 110.46875 C 181.289062 112.945312 181.785156 115.601562 181.785156 118.425781 C 181.785156 121.296875 181.289062 123.972656 180.292969 126.453125 M 178.660156 101.644531 C 176.527344 99.535156 174.027344 97.878906 171.15625 96.675781 C 168.28125 95.472656 165.222656 94.867188 161.980469 94.867188 C 158.738281 94.867188 155.691406 95.472656 152.84375 96.675781 C 149.992188 97.878906 147.515625 99.535156 145.40625 101.644531 C 143.300781 103.753906 141.632812 106.253906 140.40625 109.148438 C 139.179688 112.042969 138.5625 115.160156 138.5625 118.496094 C 138.5625 121.828125 139.164062 124.933594 140.371094 127.804688 C 141.574219 130.679688 143.242188 133.167969 145.375 135.277344 C 147.503906 137.386719 149.980469 139.054688 152.808594 140.28125 C 155.632812 141.507812 158.691406 142.121094 161.980469 142.121094 C 165.222656 142.121094 168.28125 141.519531 171.15625 140.3125 C 174.027344 139.109375 176.527344 137.441406 178.660156 135.3125 C 180.789062 133.179688 182.46875 130.679688 183.695312 127.804688 C 184.921875 124.933594 185.539062 121.828125 185.539062 118.496094 C 185.539062 115.160156 184.921875 112.042969 183.695312 109.148438 C 182.46875 106.253906 180.789062 103.753906 178.660156 101.644531 " fill-opacity="1" fill-rule="nonzero"/><path fill="#903a19" d="M 227.441406 95.5625 L 210.972656 135.171875 L 194.503906 95.5625 L 190.613281 95.5625 L 210.277344 142.121094 L 211.734375 142.121094 L 231.402344 95.5625 Z M 227.441406 95.5625 " fill-opacity="1" fill-rule="nonzero"/><path fill="#903a19" d="M 271.078125 98.828125 L 287.828125 98.828125 L 287.828125 141.425781 L 291.511719 141.425781 L 291.511719 98.828125 L 308.257812 98.828125 L 308.257812 95.5625 L 271.078125 95.5625 Z M 271.078125 98.828125 " fill-opacity="1" fill-rule="nonzero"/><path fill="#903a19" d="M 353.390625 126.453125 C 352.394531 128.929688 351.015625 131.070312 349.253906 132.878906 C 347.496094 134.6875 345.410156 136.109375 343 137.152344 C 340.59375 138.195312 337.996094 138.714844 335.21875 138.714844 C 332.394531 138.714844 329.773438 138.195312 327.367188 137.152344 C 324.957031 136.109375 322.871094 134.6875 321.113281 132.878906 C 319.351562 131.070312 317.972656 128.929688 316.976562 126.453125 C 315.980469 123.972656 315.484375 121.296875 315.484375 118.425781 C 315.484375 115.554688 315.980469 112.890625 316.976562 110.433594 C 317.972656 107.980469 319.351562 105.847656 321.113281 104.042969 C 322.871094 102.234375 324.957031 100.808594 327.367188 99.765625 C 329.773438 98.726562 332.394531 98.203125 335.21875 98.203125 C 337.996094 98.203125 340.59375 98.726562 343 99.765625 C 345.410156 100.808594 347.496094 102.234375 349.253906 104.042969 C 351.015625 105.847656 352.394531 107.992188 353.390625 110.46875 C 354.382812 112.945312 354.882812 115.601562 354.882812 118.425781 C 354.882812 121.296875 354.382812 123.972656 353.390625 126.453125 M 356.796875 109.148438 C 355.566406 106.253906 353.886719 103.753906 351.757812 101.644531 C 349.625 99.535156 347.125 97.878906 344.253906 96.675781 C 341.378906 95.472656 338.320312 94.867188 335.078125 94.867188 C 331.835938 94.867188 328.789062 95.472656 325.941406 96.675781 C 323.09375 97.878906 320.613281 99.535156 318.503906 101.644531 C 316.398438 103.753906 314.730469 106.253906 313.5 109.148438 C 312.273438 112.042969 311.660156 115.160156 311.660156 118.496094 C 311.660156 121.828125 312.261719 124.933594 313.46875 127.804688 C 314.671875 130.679688 316.339844 133.167969 318.472656 135.277344 C 320.601562 137.386719 323.078125 139.054688 325.90625 140.28125 C 328.730469 141.507812 331.789062 142.121094 335.078125 142.121094 C 338.320312 142.121094 341.378906 141.519531 344.253906 140.3125 C 347.125 139.109375 349.625 137.441406 351.757812 135.3125 C 353.886719 133.179688 355.566406 130.679688 356.796875 127.804688 C 358.023438 124.933594 358.636719 121.828125 358.636719 118.496094 C 358.636719 115.160156 358.023438 112.042969 356.796875 109.148438 " fill-opacity="1" fill-rule="nonzero"/><path fill="#903a19" d="M 250.859375 94.867188 L 231.195312 141.425781 L 235.015625 141.425781 L 239.464844 130.683594 L 239.445312 130.65625 L 240.921875 127.25 L 251.554688 101.402344 L 262.1875 127.25 L 263.574219 130.515625 L 268.164062 141.425781 L 271.984375 141.425781 L 252.316406 94.867188 Z M 250.859375 94.867188 " fill-opacity="1" fill-rule="nonzero"/><path fill="#903a19" d="M 18.417969 129.515625 L 18.382812 129.515625 L 18.382812 107.382812 L 18.417969 107.382812 L 18.417969 98.828125 L 43.570312 98.828125 L 43.570312 95.5625 L 14.804688 95.5625 L 14.804688 141.425781 L 44.40625 141.425781 L 44.40625 138.160156 L 18.417969 138.160156 Z M 18.417969 129.515625 " fill-opacity="1" fill-rule="nonzero"/><path fill="#903a19" d="M 25.390625 118.285156 L 37.941406 118.285156 L 37.941406 115.019531 L 25.390625 115.019531 Z M 25.390625 118.285156 " fill-opacity="1" fill-rule="nonzero"/><path fill="#903a19" d="M 203.941406 44.472656 C 215.800781 48.261719 232.351562 41.4375 231.574219 30.253906 C 228.84375 35.15625 217.515625 33.871094 209.242188 30.980469 C 201.53125 28.28125 186.109375 19.8125 176.390625 16.441406 C 167.175781 13.242188 143.539062 11.058594 141.839844 35.316406 C 144.792969 34.328125 148.601562 33.488281 152.304688 33.296875 C 170.203125 32.375 187.011719 39.066406 203.941406 44.472656 " fill-opacity="1" fill-rule="nonzero"/><path fill="#903a19" d="M 175.84375 12.742188 C 178.886719 13.796875 182.488281 15.351562 186.234375 17.074219 C 187.945312 17.859375 189.800781 18.304688 191.683594 18.300781 C 192.289062 18.300781 192.898438 18.273438 193.507812 18.21875 C 187.433594 17.550781 183.710938 11.230469 175.367188 8.101562 C 167.574219 5.179688 162.617188 8.644531 159.96875 11.042969 C 166.015625 10.320312 172.113281 11.445312 175.84375 12.742188 " fill-opacity="1" fill-rule="nonzero"/><path fill="#903a19" d="M 185.289062 55.964844 C 196.539062 59.46875 208.480469 57.21875 216.5 50.136719 C 218.03125 48.785156 219.3125 47.136719 220.246094 45.3125 C 217.550781 48.851562 207.390625 48.648438 200.820312 46.550781 C 187.828125 42.402344 172.894531 37.566406 162.527344 37.699219 C 144.980469 37.929688 147.042969 53.988281 147.042969 53.988281 C 147.042969 53.988281 152.433594 45.730469 185.289062 55.964844 " fill-opacity="1" fill-rule="nonzero"/><path fill="#903a19" d="M 184.398438 59.496094 C 177.582031 56.855469 172.234375 55.355469 168.046875 54.574219 C 167.792969 54.597656 167.535156 54.613281 167.277344 54.648438 C 173.320312 57.011719 178.480469 61.179688 184.257812 63.714844 C 186.039062 64.496094 187.78125 65.289062 189.363281 65.832031 C 191.515625 66.574219 193.335938 66.824219 194.796875 66.695312 C 199.273438 66.308594 202.054688 62.617188 205.109375 59.277344 C 198.890625 62.035156 191.375 62.195312 184.398438 59.496094 " fill-opacity="1" fill-rule="nonzero"/></svg>